<svg xmlns="http://www.w3.org/2000/svg" viewBox="0 0 467.93 424.37"><defs><style>.cls-1{fill:#92e3a9;}.cls-2{fill:#222468;}.cls-3,.cls-8{fill:#fff;}.cls-12,.cls-13,.cls-14,.cls-3,.cls-4,.cls-5,.cls-6,.cls-7,.cls-8{stroke:#263238;stroke-linecap:round;stroke-linejoin:round;}.cls-4,.cls-9{fill:#263238;}.cls-12,.cls-5,.cls-6{fill:none;}.cls-5,.cls-8{stroke-width:3px;}.cls-6{stroke-width:2px;}.cls-11,.cls-7{fill:#00aeef;}.cls-10{fill:#ababab;}.cls-13{fill:#2e3192;}.cls-14{fill:#b5b5b5;}</style></defs><g id="Layer_2" data-name="Layer 2"><g id="Background_Simple" data-name="Background Simple"><path class="cls-1" d="M457.05,251.58c-13.33,40.38-42,84.63-84.26,99-63.82,21.77-69.52,74.11-185.35,73.75a233,233,0,0,1-50.29-5.4,196.3,196.3,0,0,1-23.81-6.91C44.73,387.31,7.16,328.45,1.8,265.55-5.27,182.82,51,141.08,87.72,116.5S166.24.55,280.1,0a226.89,226.89,0,0,1,51.69,5.52c38.67,8.88,78.45,30.28,102.35,62.9q2.69,3.67,5.16,7.52C471.53,126.09,475.21,196.53,457.05,251.58Z"/><path class="cls-2" d="M457.05,251.58c-13.33,40.38-42,84.63-84.26,99-63.82,21.77-69.52,74.11-185.35,73.75a233,233,0,0,1-50.29-5.4,196.3,196.3,0,0,1-23.81-6.91C44.73,387.31,7.16,328.45,1.8,265.55-5.27,182.82,51,141.08,87.72,116.5S166.24.55,280.1,0a226.89,226.89,0,0,1,51.69,5.52c38.67,8.88,78.45,30.28,102.35,62.9q2.69,3.67,5.16,7.52C471.53,126.09,475.21,196.53,457.05,251.58Z"/></g><g id="Blood_Bag" data-name="Blood Bag"><rect class="cls-3" x="321.08" y="75.12" width="3.4" height="318.56" transform="translate(645.55 468.8) rotate(180)"/><rect class="cls-3" x="303.68" y="393.56" width="38.49" height="2.21" transform="translate(645.85 789.33) rotate(180)"/><path class="cls-4" d="M303.11,398.43a2.73,2.73,0,1,1,2.73,2.73A2.73,2.73,0,0,1,303.11,398.43Z"/><circle class="cls-4" cx="339.81" cy="398.43" r="2.73"/><path class="cls-5" d="M353.93,75.8v.85A5.38,5.38,0,0,1,348.54,82h-1.13A5.38,5.38,0,0,1,342,76.65V75.8H303v1.41a5.37,5.37,0,0,1-5.38,5.38h0a5.38,5.38,0,0,1-5.38-5.38v-.85"/><line class="cls-6" x1="296.82" y1="129.25" x2="296.82" y2="248.88"/><path class="cls-3" d="M293.74,80.52a3.88,3.88,0,0,1,5.23-.08l5.55,4.87c2.62,2.3,3.93,3.28,3.93,3.28H285.17Z"/><path class="cls-3" d="M290,88.59h13.63a4.84,4.84,0,0,1,4.84,4.84v28.28a0,0,0,0,1,0,0H285.15a0,0,0,0,1,0,0V93.43A4.84,4.84,0,0,1,290,88.59Z" transform="translate(593.6 210.3) rotate(180)"/><path class="cls-7" d="M291.1,103.12h11.41a4.84,4.84,0,0,1,4.84,4.84v12.17a0,0,0,0,1,0,0H286.26a0,0,0,0,1,0,0V108A4.84,4.84,0,0,1,291.1,103.12Z" transform="translate(593.6 223.26) rotate(180)"/><rect class="cls-7" x="295.31" y="121.81" width="2.97" height="7.22" transform="translate(593.6 250.85) rotate(180)"/><rect class="cls-3" x="287.71" y="90.99" width="18.06" height="26.68" transform="translate(593.48 208.66) rotate(180)"/><path class="cls-8" d="M295.54,82.2a5.41,5.41,0,0,1-3.35-5v-.85"/></g><g id="Plant"><path class="cls-9" d="M52.9,286.34h0a.08.08,0,0,0,0-.11.08.08,0,0,0-.11,0,115.55,115.55,0,0,0-6.09,19.09,178.34,178.34,0,0,0-3.36,19.78l-.47,5c-.08.84-.17,1.67-.23,2.5l-.13,2.51c-.08,1.68-.18,3.35-.23,5l.05,5,0,2.51c0,.84.1,1.67.16,2.51.13,1.67.23,3.34.38,5,.32,3.33.82,6.64,1.34,9.94a.09.09,0,0,0,.08.08.09.09,0,0,0,.09-.09h0c0-1.67-.08-3.34-.12-5s-.19-3.33-.16-5,0-3.33-.06-5l0-2.49,0-2.5,0-5,.14-5,0-2.49c0-.83.09-1.66.14-2.49l.3-5a180,180,0,0,1,2.82-19.74A115.24,115.24,0,0,1,52.9,286.34Z"/><path class="cls-9" d="M53.61,312.38a.09.09,0,0,0,0-.11.09.09,0,0,0-.11.06A115,115,0,0,0,47.81,338c-.44,4.36-.93,8.72-1,13.11a106.89,106.89,0,0,0,.47,13.14.07.07,0,0,0,.07.07.08.08,0,0,0,.1-.07c.51-4.37.82-8.72,1.12-13.07s.35-8.71.63-13.06a115.53,115.53,0,0,1,1.56-12.95A119.17,119.17,0,0,1,53.61,312.38Z"/><path class="cls-9" d="M68.05,321.54a.08.08,0,0,0-.12,0,43.72,43.72,0,0,0-9.65,8.41,37.8,37.8,0,0,0-3.78,5.25l-.77,1.46-.61,1.52a14.92,14.92,0,0,0-.53,1.55c-.16.52-.33,1-.47,1.55a62.12,62.12,0,0,0-2,12.74,74.21,74.21,0,0,0,.48,12.82s0,.08.08.08a.1.1,0,0,0,.1-.08l1.1-12.7a113.32,113.32,0,0,1,1.6-12.52c.12-.51.27-1,.4-1.51a12.35,12.35,0,0,1,.44-1.5l.52-1.47.66-1.38A36.89,36.89,0,0,1,59,330.49,43.55,43.55,0,0,1,68,321.67h0A.1.1,0,0,0,68.05,321.54Z"/><path class="cls-9" d="M61.06,337.85a14.16,14.16,0,0,0-4.39,5.28,31.83,31.83,0,0,0-2.46,6.47c-.17.55-.31,1.11-.43,1.67L53.39,353a26.35,26.35,0,0,0-.43,3.43c0,1.15-.05,2.3,0,3.45a33.19,33.19,0,0,0,.45,3.43.12.12,0,0,0,.07.07.09.09,0,0,0,.11-.07,31.19,31.19,0,0,0,.61-3.38c.17-1.11.35-2.23.48-3.34s.31-2.21.4-3.32.23-2.23.47-3.32a30.36,30.36,0,0,1,1.89-6.4,14,14,0,0,1,3.68-5.5l0,0a.08.08,0,0,0,0-.11A.09.09,0,0,0,61.06,337.85Z"/><path class="cls-9" d="M40.82,350.57c-.48-5.63-1.41-11.21-2.29-16.79s-1.85-11.14-2.87-16.69S33.5,306,32.3,300.5a.09.09,0,1,0-.17,0c1,5.56,1.84,11.13,2.66,16.71s1.64,11.15,2.35,16.74,1.23,11.19,1.93,16.78l2.06,16.77a.08.08,0,0,0,.08.08.08.08,0,0,0,.09-.08c.07-1.42.07-2.83.1-4.25s0-2.82-.08-4.24C41.27,356.21,41,353.39,40.82,350.57Z"/><path class="cls-9" d="M37.44,350.49c-.3-2.23-.71-4.45-1.14-6.66l-.79-3.29c-.26-1.1-.51-2.2-.83-3.28a92,92,0,0,0-4.31-12.82l-.67-1.55L29,321.37c-.48-1-1.06-2-1.61-3A24.84,24.84,0,0,0,23.28,313a.09.09,0,0,0-.12,0,.08.08,0,0,0,0,.12h0a24.65,24.65,0,0,1,3.72,5.52c.49,1,1,2,1.43,3L29,323.2l.59,1.57a91.84,91.84,0,0,1,3.75,12.82c.52,2.17.86,4.38,1.28,6.57l.53,3.3c.19,1.1.42,2.19.58,3.29.35,2.21.75,4.4,1.14,6.61s.74,4.42,1.21,6.63a.09.09,0,0,0,.09.07.09.09,0,0,0,.09-.09c0-2.25,0-4.5-.16-6.75S37.67,352.73,37.44,350.49Z"/><path class="cls-9" d="M32.77,350.78c-1-3-2.25-5.85-3.57-8.69a77,77,0,0,0-4.49-8.23.08.08,0,0,0-.11,0,.09.09,0,0,0,0,.12,78,78,0,0,1,3.84,8.49c1.14,2.88,2.17,5.8,3,8.78s1.51,6,2.3,9,1.5,6,2.42,9a.09.09,0,0,0,.17,0,44.71,44.71,0,0,0-.88-9.38A57.69,57.69,0,0,0,32.77,350.78Z"/><path class="cls-10" d="M32.58,360.63a20.21,20.21,0,0,0-2.48-5.2,21.76,21.76,0,0,0-3.61-4.49,16.66,16.66,0,0,0-2.3-1.73A9.19,9.19,0,0,0,21.58,348a.09.09,0,0,0-.1.05.08.08,0,0,0,.05.11h0a13,13,0,0,1,4.32,3.35,20.59,20.59,0,0,1,3,4.56c.86,1.62,1.3,3.41,2,5.08.33.85.66,1.72,1,2.57a20.26,20.26,0,0,0,1.13,2.6h0a.09.09,0,0,0,.17,0,19.82,19.82,0,0,0-.11-2.88A27,27,0,0,0,32.58,360.63Z"/><path class="cls-11" d="M32.93,308.57a16,16,0,0,1-11.37-12.08c-2.13-9.95,4.74-5.68-1.42-21.31S15.4,256,17.54,251.5s3.31-3.08,5.21,2.84,8.76,15.15,11.36,32.44S32.93,308.57,32.93,308.57Z"/><path class="cls-11" d="M51.16,291.75S45,289.62,44.77,278s4.5-9.24,5.21-23.68,1.66-24.63,4.26-24.87,9.47,7.11,11.84,23.21-3.08,26.76-7.81,31.5S51.16,291.75,51.16,291.75Z"/><path class="cls-11" d="M29.61,322.54S28.19,314,25.35,310s-9-7.58-13-15.39S3.8,283,4,294.12s5.21,16.81,11.36,20.6S29.61,322.54,29.61,322.54Z"/><path class="cls-11" d="M27,337.22s-5.69-10.89-14-18.94S-1.88,306.2.49,310.22,5.7,314,9.72,321.12s2.84,12.31,8.53,16.34S27,337.22,27,337.22Z"/><path class="cls-11" d="M26.3,351.19c-.24-.71-.48-5.92-8.53-10.18s-15.63-2.61-14.68-.47S9,346.22,14,348.35,26.3,351.19,26.3,351.19Z"/><path class="cls-11" d="M50.69,323s-3.55-4.5-1.66-14,6.16-7.1,10.89-12.08,3.79-5.68,8.53-10.89,9-8.05,10.89-5.92-1,8.76-3.79,12.55-7.34,5.68-9.47,10.42S64.9,315.43,59.45,319,50.69,323,50.69,323Z"/><path class="cls-11" d="M62.53,325.62s8.52-9.71,14.68-16.82S85.74,296.25,86,301s2.13,8.52-2.84,14.68S62.53,325.62,62.53,325.62Z"/><path class="cls-11" d="M58,341.25s-.24-3.79,13.26-12.56,19.18-10.41,17.76-6.86-7.34,7.1-13.73,13.5S58,341.25,58,341.25Z"/><path class="cls-12" d="M33.49,307.56s-3.17-17-6.48-29.07-5.45-19.42-5.45-19.42"/><path class="cls-12" d="M50.62,291.93s5.75-18.41,7.65-29.54S58,243,57.08,238"/><path class="cls-12" d="M28.87,322.18a89.8,89.8,0,0,0-8.73-12.43c-5.21-6.16-9.23-9.47-11.6-15.39"/><path class="cls-12" d="M50.69,323s1.89-11.37,6.39-17.29,13.5-15.15,17-21.07"/><path class="cls-12" d="M25.74,350.93s-8-5.19-13.65-8"/><path class="cls-9" d="M48.91,401.16H38.49a4.57,4.57,0,0,1-4.22-2.81c-3.41-8.16-12.5-31.72-7-38.4,5.22-6.36,27.7-6.36,32.92,0,5.48,6.68-3.62,30.24-7,38.4A4.58,4.58,0,0,1,48.91,401.16Z"/></g><g id="Character_1" data-name="Character 1"><path class="cls-3" d="M229.54,383.5l3.76,4.13,12,7.89a7.77,7.77,0,0,1,.75,3v1a1.68,1.68,0,0,1-1.67,1.68H210.15a.61.61,0,0,1-.6-.52,55,55,0,0,1-.67-7c0-3,1.88-12.77,1.88-12.77l17.66-.75Z"/><path class="cls-3" d="M209.55,400.64a.61.61,0,0,0,.6.52H244.4a1.68,1.68,0,0,0,1.67-1.68v-1c0-.16,0-.31,0-.47H209.2C209.33,399.15,209.47,400.09,209.55,400.64Z"/><path class="cls-3" d="M172.46,380.6l-.59,4.73s-5.77,11.39-6.21,12.57a7.54,7.54,0,0,0,0,3.26H191s1-5.92-.29-9.17-.94-8.69-.94-8.69l-.69-2.7S176.16,379,172.46,380.6Z"/><path class="cls-3" d="M165.66,401.16H191a30.84,30.84,0,0,0,.35-3.26H165.66A7.54,7.54,0,0,0,165.66,401.16Z"/><path class="cls-13" d="M234.8,245.26s-4.88,76.63-4.13,90.53-1.13,47.71-1.13,47.71a73.84,73.84,0,0,0-8.26,1.88c-1.88.75-11.34,1.51-11.34,1.51a94.35,94.35,0,0,1-1.06-9.78,87.45,87.45,0,0,1,.75-10.51c.38-2.26-6-99.55-6-99.55l-3.75,1.88L190.1,379l-.38,7.52L178.45,385l-7.32,1.62s-1.32-10.26-.94-12.51S172.44,361,172.44,361l-3.38-116.08S217.52,247.14,234.8,245.26Z"/><polygon class="cls-14" points="248.78 165.06 253.18 192.18 251.37 195.28 238.19 185.72 235.35 169.45 248.78 165.06"/><polygon class="cls-4" points="236.6 173 249.21 170.75 249.21 167.82 237.94 169.96 236.6 173"/><path class="cls-13" d="M200.22,111.58s-.77,10.34-.77,12.15S185,128.37,178,133.8c-3.93,3-8.79,9.56-8.79,13.43s2.07,55.54,2.07,55.54l-3.73,45.12s17.08,4.54,30.51,5.84,39-6.22,39-6.22-2-41.38-2-44.22-.51-10.34-.51-10.34l2.32-21.69,1-1.3,15.76-3.1s-4.19-14.59-11.11-25.31c-5.16-8-20.92-13.18-22.47-13.69l-1.55-.52-.52-5.42S204.1,116.49,200.22,111.58Z"/><path class="cls-14" d="M218.56,127.34l-.52-5.42s-13.94-5.43-17.82-10.34c0,0-.77,10.34-.77,12.15,0,.7-2.24,1.57-5.36,2.7,3.25,4.6,11.42,16.12,13.88,19a62.08,62.08,0,0,1,6.2,9.56l9.3-25.92c-1.73-.66-3-1.07-3.36-1.2Z"/><path class="cls-4" d="M218.51,126.76l-.47-4.84s-13.94-5.43-17.82-10.34c0,0-.12,1.59-.26,3.62,1,2.08,7,14.12,12.08,13.92A12.42,12.42,0,0,0,218.51,126.76Z"/><path class="cls-14" d="M232.77,175.13s16.53,12.66,19.11,14.72,2.33,5.43.52,8.53-10.33,6.46-13.17,4.13-9.3-15-10.08-16.53-3.36-8.27-3.36-8.27Z"/><path class="cls-14" d="M231.48,170.22a53.67,53.67,0,0,0-8.53-3.61c-3.1-.78-6.71,6.45-6.71,6.45l16.27-.25Z"/><polygon class="cls-4" points="207.71 169.96 195.05 200.44 223.99 200.44 236.9 169.71 207.71 169.96"/><path class="cls-14" d="M185.75,188.82s11.89-8.52,13.44-9,5.68-1.55,5.68-1.55l-1.81,3.62,8.53.25s1.55-.25,1.29,2.33-4.65,3.1-4.65,3.1-2.07,8-5.68,8.78-16,0-16,0-24,15.5-27.12,11.11-.52-41.59-.52-41.59l17.31,3.88-.52,19.89Z"/><polygon class="cls-4" points="158.74 170.97 176.07 173.67 176.07 172.32 158.97 167.6 158.74 170.97"/><line class="cls-3" x1="175.68" y1="189.6" x2="165.09" y2="189.85"/><path class="cls-13" d="M184.21,131.22s-11.63,1-18.86,7c-2.12,1.74-11.37,28.16-11.37,28.16l23.51,5.94,1.81-9"/><path class="cls-14" d="M198.23,96.46s-3.23-4.84-4.52,0,0,6.86,1.92,8.15,2.6,1.21,2.6,1.21.32,6.45,2.58,10.65,7.42,9,12.26,9.35,8.07-3.22,9.68-5.48,6.78-14.85,6.78-21-.65-17.43-3.87-21S211.78,71.61,204,74.83,197.26,93.23,198.23,96.46Z"/><path class="cls-9" d="M213.22,101.25c0,1.18-.54,2.14-1.2,2.14s-1.2-1-1.2-2.14.53-2.14,1.2-2.14S213.22,100.07,213.22,101.25Z"/><path class="cls-9" d="M226.05,101.25c0,1.18-.54,2.14-1.2,2.14s-1.2-1-1.2-2.14.54-2.14,1.2-2.14S226.05,100.07,226.05,101.25Z"/><path class="cls-9" d="M220,86.28A31.32,31.32,0,0,0,228.31,85c-.59-2.85-1.44-5.29-2.65-6.63-3.23-3.55-13.88-6.77-21.63-3.55s-6.77,18.4-5.8,21.63h0a2,2,0,0,0,2.58-2.15l0-.28s3.78-2.51,3.78-5.18,0-5.24,0-5.24S215.23,86.28,220,86.28Z"/><path class="cls-9" d="M197.2,95.24l1,1.22A8.57,8.57,0,0,0,197.2,95.24Z"/><path class="cls-12" d="M219.39,98.36s1.25,7.7,1,9.37-2.29,2.5-4.38,2.5a7,7,0,0,1-4-1.66"/><path class="cls-12" d="M211.26,113.57a7.35,7.35,0,0,0,8.33,0"/><path class="cls-6" d="M214.42,96.44a9.06,9.06,0,0,0-7.91-.42"/><path class="cls-6" d="M221,96.76s3.33-2.08,6.25.21"/></g><g id="Character_2" data-name="Character 2"><rect class="cls-4" x="145.39" y="228.77" width="3.3" height="67.6"/><rect class="cls-4" x="180.01" y="228.77" width="3.3" height="67.6"/><rect class="cls-4" x="214.64" y="228.77" width="3.3" height="67.6"/><rect class="cls-4" x="249.26" y="228.77" width="3.3" height="67.6"/><rect class="cls-4" x="283.88" y="228.77" width="3.3" height="67.6"/><rect class="cls-4" x="134.67" y="222.18" width="176.41" height="6.59"/><path class="cls-3" d="M440.46,229.46a232.41,232.41,0,0,0-126.36-.08,8.31,8.31,0,0,0-6.05,8v67.23h15.66v-4.07a7.48,7.48,0,0,1,7.47-7.47h86.46a7.47,7.47,0,0,1,7.47,7.47v4.07h21.38V237.45A8.31,8.31,0,0,0,440.46,229.46ZM318.72,253.69v-11a6.64,6.64,0,0,1,5.11-6.32c4-1.06,8.09-2,12.17-2.8C330.47,244.35,323.91,250.37,318.72,253.69Zm80.83-13.38c-20.6-4.94-51.11,0-51.11,0v-8.85a209.63,209.63,0,0,1,51.11-.77Zm36.28,14.77c-12.16-6.6-18.37-15-21.53-22.28,5.51,1,11,2.18,16.42,3.62a6.64,6.64,0,0,1,5.11,6.31Z"/><path class="cls-3" d="M434.66,229.46a232.41,232.41,0,0,0-126.36-.08,8.31,8.31,0,0,0-6,8v67.23h15.66v-4.07a7.47,7.47,0,0,1,7.47-7.47h86.46a7.48,7.48,0,0,1,7.47,7.47v4.07H440.7V237.45A8.32,8.32,0,0,0,434.66,229.46ZM312.92,253.69v-11a6.65,6.65,0,0,1,5.11-6.32c4-1.06,8.1-2,12.18-2.8C324.67,244.35,318.11,250.37,312.92,253.69Zm80.84-13.38c-20.61-4.94-51.11,0-51.11,0v-8.85a209.61,209.61,0,0,1,51.11-.77ZM430,255.08c-12.15-6.6-18.37-15-21.52-22.28,5.51,1,11,2.18,16.42,3.62a6.63,6.63,0,0,1,5.1,6.31Z"/><rect class="cls-13" x="319.57" y="259.27" width="96.45" height="24.73"/><polygon class="cls-13" points="425.77 177.73 314.45 177.73 254.52 285.01 372.77 281.45 425.77 177.73"/><rect class="cls-13" x="162.03" y="281.45" width="212.38" height="14.01"/><polygon class="cls-13" points="425.77 191.75 372.77 295.46 372.77 281.45 425.77 177.73 425.77 191.75"/><path class="cls-3" d="M336.24,166s42.12-3.86,53.33-1.51l4.24.51s4.39-1.11,6.16.31,0,2.9-.2,4.21a26.46,26.46,0,0,1-.65,3s.83,13.77-2,23.1-11.45,22.49-11.45,22.49,1,3.43.19,4.81-2.68-1-2.68-1-19.64.16-37,.41-26-1.73-26-1.73-4.33,1.75-5.35,1.21,1.6-3.07,1.6-3.07,1.09-5,3.53-15.2S330.87,173,330.87,173s-1.2-8.25,2.08-7.63Z"/><path class="cls-4" d="M310.58,231.2c7.73.59,15.67,1.12,21.82,1.35,8.09.3,20.36,2.85,31.24,5.51C365,234,366,230.8,366,230.8l7.79-2.33s10.12-1,10.12-2.34.77-23.87-.52-26.72S373,194,355.59,194.74c-4.42.2-12.46-1.3-12.46-1.3s-11,1.82-14.92,1.82-7.78-.52-10.9,2.85l-.45.54L296.7,222.82l10.39,2Z"/><path class="cls-3" d="M345.48,153.38c-1.05,1.64-2.68,5.79-3.62,7.5-1.77,3.25-.69,4.14-2.11,7.3,0,0-5.88,2.74-5.21,3.9s1.95,4.08,1.95,4.08-1.68,11.58-.94,12.32,6.62,1,6.62,1l-1.5,5.36s-6.28,4.38-6.07,11.07,12.55,2.51,17.14-.2,8.16-10,8.16-10a6.73,6.73,0,0,1-.38-3.47c.42-1.42,3.65-6.23,3.65-6.23s9.38-7.94,11-13.2-1.64-12.06-7.9-17S347.88,151.4,345.48,153.38Z"/><path class="cls-4" d="M347.82,147.81c-2.47.53-4.34,1.6-4.17,3.62a5,5,0,0,0,3.81,4.35s12.44,3.06,12.2,4.72-5.65,4-5,5.4a4.2,4.2,0,0,0,2.48,1.84s-2.08,4.13-.31,5,2-.35,3.32-1,5.14,1,4.51,5.3-6.19,4.81-6.19,4.81l3.51,4.94s6.63-4.95,10.84-7.72,8-10.25,5.35-18-16.36-12.5-20.47-13.31A30.36,30.36,0,0,0,347.82,147.81Z"/><path class="cls-12" d="M337.4,178.61s2.33,1.4,5.94-.19"/><path class="cls-9" d="M345.13,168.88c-.25.77-.77,1.28-1.15,1.16s-.49-.86-.24-1.62.78-1.29,1.16-1.16S345.39,168.11,345.13,168.88Z"/><path class="cls-12" d="M343.52,164.08a3.68,3.68,0,0,1,5,.72"/><path class="cls-4" d="M335.55,188.48a78.11,78.11,0,0,0,8.28-.28c1.95-.35,8-1.37,8-1.37l-10.35,4.41.68-1.8S336.85,189.73,335.55,188.48Z"/><path class="cls-3" d="M388.14,264.7l-1.89-2.13c-1.88-2.13-.33-6.72-5.12-10.4a129.15,129.15,0,0,1-11.42-10.69s-11.8-4.06-18.8-5.9-29.49-8.48-45-3.32c0,0-3.32,1.85-3.69,3.32s-3.68,5.53-3.68,5.53-48.66,2.95-57.13,4-24.33,5.9-29.86,8.11-21.38,5.16-21.38,5.16-8.84-3-11.79-2.21-9.95,8.48-11.06,9.95a40,40,0,0,1-4.79,4.43v11h21.33a85.2,85.2,0,0,0-.58,10.32s204.83,1.85,205.19,0S388.14,264.7,388.14,264.7Z"/><path class="cls-12" d="M351.58,281a12.42,12.42,0,0,1,4.49,1.37c2.58,1.84,2.58,6.64,2.58,6.64"/><path class="cls-12" d="M342.8,280.18s1.27,0,3.05.18"/><path class="cls-12" d="M301.15,280.18s10.69.37,13.27,2.21S317,289,317,289"/><path class="cls-12" d="M229.27,280.18s10.69.37,13.27,2.21,2.58,6.64,2.58,6.64"/><path class="cls-12" d="M297.46,280.18s8,.37,9.88,2.21,1.92,6.64,1.92,6.64"/><path class="cls-3" d="M361.9,231.83s-26.39-4.08-27.4-4.08-8.65,1.57-11.76,3.19-2.61,2.74-.74,3.73a19.09,19.09,0,0,0,5.1,1.5,42.34,42.34,0,0,0,4.85.62s2.49-.12,4.23-.37a10.08,10.08,0,0,0,3.23-1.12S359,244.22,361.5,245Z"/><path class="cls-4" d="M369.46,209.74,366,230.8l-4.06,1L361.5,245s12.54,2.78,14.33,3,7.16,1,7.36-4.77,1.2-32.24,1.2-32.24"/><path class="cls-3" d="M332.63,227.82s3.34.61,4.35.21,1.82.1,1.72,1.11-2.22,1.51-2.22,1.51Z"/><path class="cls-3" d="M322.43,227.54s7.41-1,8.79-.43,9.41,4.7,9.55,5.39-.83,1.11-.83,1.11-.14,1-1.8,1.8l-1.66.83s-1.79.76-2.49,1.11-1.52,0-3.32-.56-4.43-1.8-4.85-1.8a27.66,27.66,0,0,1-5.81-1.24,10,10,0,0,0-3.45-.68s-8.59,1.51-11.35,2.48-9.41-1.11-11.35-3.46-.14-9.14,4.43-10.38,17,3.38,17.94,3.65S322.43,227.54,322.43,227.54Z"/><line class="cls-12" x1="331.02" y1="229.54" x2="339.94" y2="233.61"/><line class="cls-12" x1="329.4" y1="231.46" x2="338.14" y2="235.41"/><line class="cls-12" x1="328.08" y1="233.28" x2="335.36" y2="236.62"/><path class="cls-12" d="M358.59,257.51a44.33,44.33,0,0,1,4.48,3.87"/><path class="cls-12" d="M304.1,241.48s18.43-3.32,35,4.42A112.84,112.84,0,0,1,353.64,254"/><path class="cls-12" d="M318.84,245.16s25.43,6.64,40.55,18.8,14.74,15.85,13.63,15.85"/><rect class="cls-3" x="91.6" y="298.84" width="7.77" height="78.36"/><rect class="cls-3" x="94.14" y="298.84" width="7.77" height="78.36"/><rect class="cls-3" x="94.19" y="349.35" width="113.33" height="8.42"/><circle class="cls-4" cx="92.11" cy="388.2" r="12.95" transform="translate(-247.52 178.84) rotate(-45)"/><path class="cls-3" d="M102.11,382.42V371.48H89.32v8.37a9.78,9.78,0,1,0,12.79,2.57Z"/><rect class="cls-3" x="206.23" y="298.84" width="7.77" height="78.36"/><rect class="cls-3" x="208.77" y="298.84" width="7.77" height="78.36"/><circle class="cls-4" cx="207.24" cy="388.2" r="12.95" transform="translate(-213.8 260.24) rotate(-45)"/><path class="cls-3" d="M217.23,382.42V371.48H204.45v8.37a9.78,9.78,0,1,0,12.78,2.57Z"/><rect class="cls-3" x="288.62" y="298.84" width="7.77" height="78.36"/><rect class="cls-3" x="291.16" y="298.84" width="7.77" height="78.36"/><rect class="cls-3" x="291.21" y="349.35" width="113.33" height="8.42"/><circle class="cls-4" cx="289.13" cy="388.2" r="12.95" transform="translate(-81.87 77.3) rotate(-13.36)"/><path class="cls-3" d="M299.12,382.42V371.48H286.33v8.37a9.78,9.78,0,1,0,12.79,2.57Z"/><rect class="cls-3" x="403.24" y="298.84" width="7.77" height="78.36"/><rect class="cls-3" x="405.78" y="298.84" width="7.77" height="78.36"/><circle class="cls-4" cx="404.25" cy="388.2" r="12.95" transform="translate(-156.1 399.55) rotate(-45)"/><path class="cls-3" d="M414.25,382.42V371.48H401.46v8.37a9.78,9.78,0,1,0,12.79,2.57Z"/><rect class="cls-3" x="162.03" y="290.6" width="276.16" height="14.01"/><rect class="cls-3" x="69.7" y="290.6" width="118.71" height="14.01"/><rect class="cls-3" x="246.11" y="228.77" width="3.3" height="67.6"/><rect class="cls-3" x="280.73" y="228.77" width="3.3" height="67.6"/><rect class="cls-3" x="315.36" y="228.77" width="3.3" height="67.6"/><rect class="cls-3" x="349.98" y="228.77" width="3.3" height="67.6"/><rect class="cls-3" x="384.6" y="228.77" width="3.3" height="67.6"/><rect class="cls-3" x="235.4" y="222.18" width="176.41" height="6.59"/><path class="cls-3" d="M199.66,229.46a232.41,232.41,0,0,0-126.36-.08,8.31,8.31,0,0,0-6,8v67.23H82.91v-4.07a7.48,7.48,0,0,1,7.47-7.47h86.46a7.47,7.47,0,0,1,7.47,7.47v4.07h21.38V237.45A8.31,8.31,0,0,0,199.66,229.46ZM77.92,253.69v-11A6.64,6.64,0,0,1,83,236.35c4-1.06,8.09-2,12.17-2.8C89.67,244.35,83.11,250.37,77.92,253.69Zm80.83-13.38c-20.6-4.94-51.11,0-51.11,0v-8.85a209.63,209.63,0,0,1,51.11-.77ZM195,255.08c-12.15-6.6-18.37-15-21.53-22.28,5.51,1,11,2.18,16.42,3.62a6.64,6.64,0,0,1,5.11,6.31Z"/><path class="cls-3" d="M193.86,229.46a232.41,232.41,0,0,0-126.36-.08,8.31,8.31,0,0,0-6,8v67.23H77.12v-4.07a7.47,7.47,0,0,1,7.47-7.47h86.46a7.48,7.48,0,0,1,7.47,7.47v4.07H199.9V237.45A8.32,8.32,0,0,0,193.86,229.46ZM72.12,253.69v-11a6.65,6.65,0,0,1,5.12-6.32c4-1.06,8.09-2,12.17-2.8C83.87,244.35,77.31,250.37,72.12,253.69ZM153,240.31c-20.61-4.94-51.11,0-51.11,0v-8.85a209.61,209.61,0,0,1,51.11-.77Zm36.27,14.77c-12.15-6.6-18.37-15-21.52-22.28,5.51,1,11,2.18,16.42,3.62a6.63,6.63,0,0,1,5.1,6.31Z"/><rect class="cls-13" x="78.77" y="259.27" width="96.45" height="24.73"/><rect class="cls-13" x="434.69" y="288.16" width="11.8" height="16.45"/><rect class="cls-13" x="197.05" y="288.16" width="11.8" height="16.45"/></g></g></svg>